<svg width="157" height="29" viewBox="0 0 157 29" fill="none" xmlns="http://www.w3.org/2000/svg">
<path d="M53.8872 6.00263L52.9428 3.25936C52.874 3.07575 52.7786 2.78656 52.6569 2.39115C52.5349 1.99574 52.4511 1.70654 52.405 1.52294C52.2811 2.08785 52.0998 2.70603 51.8609 3.37654L50.951 6.00263H53.8872ZM55.3275 10.2207L54.3213 7.42228H50.4685L49.483 10.2207H47.7461L51.516 0.102813H53.3082L57.078 10.2207H55.3275Z" fill="white"/>
<path d="M66.3359 7.4848C66.3359 8.38058 66.0118 9.08367 65.364 9.59329C64.7162 10.1035 63.8223 10.3589 62.6828 10.3589C61.5432 10.3589 60.6106 10.182 59.8848 9.82781V8.27014C60.3442 8.48633 60.8325 8.65631 61.349 8.78038C61.866 8.90445 62.3475 8.96649 62.7932 8.96649C63.4454 8.96649 63.927 8.84242 64.2372 8.59427C64.5472 8.34627 64.7021 8.0129 64.7021 7.59478C64.7021 7.21832 64.5597 6.89858 64.2749 6.63696C63.9899 6.37486 63.4018 6.06468 62.5103 5.70608C61.5916 5.33401 60.9435 4.90915 60.5669 4.4315C60.19 3.95321 60.0015 3.37905 60.0015 2.70808C60.0015 1.86744 60.3006 1.20555 60.8979 0.72304C61.4948 0.240996 62.2966 -0.000260353 63.303 -0.000260353C64.268 -0.000260353 65.2283 0.210917 66.1843 0.63343L65.6601 1.97742C64.7642 1.60096 63.9647 1.4125 63.2618 1.4125C62.7288 1.4125 62.3243 1.52874 62.0486 1.76044C61.7729 1.99246 61.6353 2.2992 61.6353 2.68051C61.6353 2.9426 61.6905 3.16647 61.8005 3.35242C61.9109 3.53853 62.0922 3.71446 62.345 3.88005C62.5976 4.04533 63.0525 4.26371 63.71 4.53458C64.4493 4.84273 64.9919 5.12957 65.3364 5.39605C65.6809 5.66253 65.9338 5.96394 66.0947 6.2992C66.2549 6.63445 66.3359 7.02986 66.3359 7.4848Z" fill="white"/>
<path d="M76.214 7.4848C76.214 8.38058 75.8899 9.08367 75.2421 9.59329C74.5943 10.1035 73.7004 10.3589 72.5609 10.3589C71.4213 10.3589 70.4887 10.182 69.7629 9.82781V8.27014C70.2222 8.48633 70.7105 8.65631 71.2271 8.78038C71.744 8.90445 72.2256 8.96649 72.6713 8.96649C73.3235 8.96649 73.8052 8.84242 74.1152 8.59427C74.4253 8.34627 74.5804 8.0129 74.5804 7.59478C74.5804 7.21832 74.438 6.89858 74.153 6.63696C73.868 6.37486 73.2799 6.06468 72.3884 5.70608C71.4697 5.33401 70.8216 4.90915 70.445 4.4315C70.0682 3.95321 69.8796 3.37905 69.8796 2.70808C69.8796 1.86744 70.1787 1.20555 70.776 0.72304C71.3729 0.240996 72.1747 -0.000260353 73.1811 -0.000260353C74.1463 -0.000260353 75.1064 0.210917 76.0624 0.63343L75.5382 1.97742C74.6422 1.60096 73.843 1.4125 73.1399 1.4125C72.6069 1.4125 72.2024 1.52874 71.9267 1.76044C71.651 1.99246 71.5134 2.2992 71.5134 2.68051C71.5134 2.9426 71.5687 3.16647 71.6785 3.35242C71.789 3.53853 71.9702 3.71446 72.2233 3.88005C72.4756 4.04533 72.9306 4.26371 73.5881 4.53458C74.3274 4.84273 74.87 5.12957 75.2145 5.39605C75.559 5.66253 75.8119 5.96394 75.9728 6.2992C76.1332 6.63445 76.214 7.02986 76.214 7.4848Z" fill="white"/>
<path d="M80.2818 0.14401H81.9286V10.2207H80.2818V0.14401Z" fill="white"/>
<path d="M90.8281 4.75516H94.5364V9.81434C93.9299 10.012 93.3475 10.1521 92.7888 10.2343C92.2307 10.3172 91.6275 10.3589 90.9797 10.3589C89.4545 10.3589 88.2781 9.90739 87.451 9.00425C86.6241 8.10157 86.2102 6.82746 86.2102 5.18252C86.2102 3.56078 86.6769 2.29136 87.6095 1.37475C88.5421 0.458127 89.8265 -0.000260353 91.4622 -0.000260353C92.5147 -0.000260353 93.5117 0.201832 94.4537 0.606328L93.8745 1.97757C93.0569 1.60112 92.239 1.41266 91.421 1.41266C90.346 1.41266 89.4957 1.75026 88.8708 2.42562C88.2457 3.10098 87.9336 4.02449 87.9336 5.19647C87.9336 6.42766 88.2147 7.36417 88.7777 8.00523C89.3406 8.64565 90.1502 8.96649 91.2075 8.96649C91.7403 8.96649 92.3102 8.90007 92.9167 8.76628V6.16792H90.8281V4.75516Z" fill="white"/>
<path d="M107.467 10.2207H105.448L100.492 2.19109H100.437L100.472 2.63914C100.536 3.49388 100.568 4.27483 100.568 4.98277V10.2207H99.0727V0.144013H101.071L106.013 8.13242H106.054C106.045 8.02684 106.027 7.64176 105.999 6.978C105.972 6.31407 105.958 5.79568 105.958 5.42361V0.144013H107.467V10.2207Z" fill="white"/>
<path d="M116.601 10.2207L113.678 1.80539H113.624C113.702 3.05491 113.74 4.22689 113.74 5.32053V10.2207H112.245V0.144013H114.568L117.366 8.16015H117.407L120.288 0.144013H122.618V10.2207H121.033V5.2375C121.033 4.73666 121.045 4.08448 121.07 3.28019C121.096 2.47637 121.117 1.989 121.136 1.81902H121.081L118.055 10.2207H116.601Z" fill="white"/>
<path d="M133.088 10.2207H127.389V0.144013H133.088V1.53641H129.036V4.27968H132.834V5.65813H129.036V8.82142H133.088V10.2207Z" fill="white"/>
<path d="M145.778 10.2207H143.759L138.803 2.19109H138.748L138.783 2.63914C138.847 3.49388 138.879 4.27483 138.879 4.98277V10.2207H137.384V0.144013H139.382L144.324 8.13242H144.365C144.356 8.02684 144.338 7.64176 144.31 6.978C144.283 6.31407 144.269 5.79568 144.269 5.42361V0.144013H145.778V10.2207Z" fill="white"/>
<path d="M154.036 10.2207H152.389V1.5574H149.426V0.144013H157V1.5574H154.036V10.2207Z" fill="white"/>
<path d="M118.248 14.7151C117.522 15.1332 116.967 15.7352 116.583 16.5207C116.199 17.3065 116.008 18.2232 116.008 19.2706C116.008 20.934 116.403 22.2127 117.193 23.1066C117.983 24 119.116 24.4473 120.591 24.4473C121.593 24.4473 122.489 24.2973 123.279 23.9989V22.5863C122.847 22.7193 122.431 22.8285 122.031 22.9133C121.632 22.9985 121.219 23.0411 120.791 23.0411C119.803 23.0411 119.048 22.7237 118.527 22.0895C118.005 21.4558 117.745 20.5207 117.745 19.2847C117.745 18.1035 118.016 17.1781 118.558 16.5071C119.1 15.836 119.845 15.5009 120.791 15.5009C121.209 15.5009 121.608 15.562 121.987 15.6835C122.366 15.805 122.725 15.9466 123.065 16.1075L123.658 14.7359C122.785 14.3042 121.834 14.088 120.805 14.088C119.826 14.088 118.974 14.2968 118.248 14.7151Z" fill="white"/>
<path d="M133.819 14.2324V20.5944C133.819 22.2252 133.042 23.0411 131.489 23.0411C130.69 23.0411 130.097 22.8434 129.711 22.4481C129.325 22.0532 129.132 21.4399 129.132 20.608V14.2324H127.478V20.7252C127.478 21.8832 127.825 22.7926 128.519 23.4545C129.212 24.1164 130.184 24.4473 131.434 24.4473C132.275 24.4473 132.998 24.2966 133.602 23.9956C134.206 23.6947 134.668 23.265 134.987 22.7068C135.306 22.1483 135.466 21.4969 135.466 20.7527V14.2324H133.819Z" fill="white"/>
<path d="M140.161 14.2324V24.3091H141.808V20.2839H143.435L145.847 24.3091H147.722L144.875 19.8498C146.18 19.3168 146.833 18.4232 146.833 17.1684C146.833 16.1855 146.52 15.4504 145.895 14.9631C145.27 14.4762 144.308 14.2324 143.008 14.2324H140.161ZM141.808 15.6248H142.897C143.646 15.6248 144.207 15.7489 144.579 15.9969C144.951 16.245 145.137 16.6539 145.137 17.2237C145.137 17.7844 144.965 18.2073 144.62 18.4921C144.276 18.7769 143.72 18.9195 142.953 18.9195H141.808V15.6248Z" fill="white"/>
<path d="M151.3 14.2324V24.3091H157V22.9098H152.947V19.7465H156.745V18.3681H152.947V15.6248H157V14.2324H151.3Z" fill="white"/>
<path d="M112.169 20.0122H48.3616C47.9508 20.0122 47.6174 19.6788 47.6174 19.2681C47.6174 18.8572 47.9508 18.5238 48.3616 18.5238H112.169C112.58 18.5238 112.913 18.8572 112.913 19.2681C112.913 19.6788 112.58 20.0122 112.169 20.0122Z" fill="white"/>
<path d="M31.5861 17.6719H8.36125C7.87075 17.6719 7.47314 17.2744 7.47314 16.7838C7.47314 16.2933 7.87075 15.8957 8.36125 15.8957H31.5861C32.0765 15.8957 32.4741 16.2933 32.4741 16.7838C32.4741 17.2744 32.0765 17.6719 31.5861 17.6719Z" fill="white"/>
<path d="M18.806 0.49277C18.3299 0.615278 18.044 1.09841 18.1649 1.57277L18.2412 1.87278C18.2732 1.99545 18.3033 2.11796 18.3354 2.23875C19.2661 5.90648 19.9853 9.07163 17.7387 10.949C17.6675 11.0076 17.5947 11.0645 17.5182 11.1214C17.1239 11.4126 17.0404 11.9686 17.3317 12.3629C17.5059 12.599 17.7741 12.7251 18.0457 12.7251C18.2287 12.7251 18.4134 12.6682 18.5734 12.5512C19.2252 12.0698 19.7207 11.5334 20.0867 10.949C21.5981 8.55481 20.9552 5.38965 20.1647 2.23875C20.0991 1.97055 20.0298 1.70233 19.9623 1.43397L19.886 1.1357C19.7839 0.733088 19.4225 0.465194 19.0255 0.465194C18.9531 0.465194 18.8795 0.474128 18.806 0.49277Z" fill="white"/>
<path d="M6.13121 0.462383C2.75126 0.462383 0 3.2138 0 6.59374C0 8.8122 1.18466 10.7606 2.95555 11.837C1.18466 12.9115 0 14.8601 0 17.0784C0 20.4585 2.75126 23.2097 6.13121 23.2097H7.52548V27.6288C7.52548 28.1386 7.80794 28.5987 8.26272 28.8313C8.68727 29.048 9.18639 29.0267 9.58776 28.7781L11.0264 28.0836L12.522 28.7817C12.7368 28.9131 12.9802 28.9805 13.2252 28.9805C13.4349 28.9805 13.6445 28.9308 13.8398 28.8313C14.2946 28.6003 14.5769 28.1386 14.5769 27.6288V23.2097H31.5535C32.0437 23.2097 32.4416 22.8118 32.4416 22.3218C32.4416 21.8313 32.0437 21.4337 31.5535 21.4337H13.6888C13.1986 21.4337 12.8007 21.8313 12.8007 22.3218V26.952L11.7279 26.4514C11.2946 26.1866 10.7492 26.1883 10.3159 26.4548L9.30185 26.9431V22.3218C9.30185 21.8313 8.90393 21.4337 8.41374 21.4337H6.13121C3.72992 21.4337 1.77606 19.4797 1.77606 17.0784C1.77606 14.6771 3.72992 12.7249 6.13121 12.7249H29.5696C29.6832 12.7249 29.7914 12.7019 29.8928 12.6628C33.9674 12.2188 36.0915 9.40376 36.0915 6.6185C36.0915 3.56003 33.5055 0.462383 28.5643 0.462383H6.13121ZM1.77606 6.59374C1.77606 4.19245 3.72992 2.2386 6.13121 2.2386H28.5643C32.5162 2.2386 34.3154 4.5086 34.3154 6.6185C34.3154 7.73048 33.843 8.77305 32.9868 9.5493C31.9781 10.464 30.5127 10.9489 28.749 10.9489H6.13121C3.72992 10.9489 1.77606 8.99518 1.77606 6.59374Z" fill="white"/>
<g opacity="0.289993">
<path d="M17.7387 10.9487H6.13142C3.72998 10.9487 1.77612 8.99486 1.77612 6.59357C1.77612 4.19229 3.72998 2.23843 6.13142 2.23843H18.3354C19.2661 5.90616 19.9853 9.07132 17.7387 10.9487Z" fill="white"/>
</g>
</svg>
