<svg width="187" height="35" viewBox="0 0 187 35" fill="none" xmlns="http://www.w3.org/2000/svg">
<path d="M64.1838 7.15024L63.059 3.88278C62.9771 3.66409 62.8634 3.31963 62.7185 2.84867C62.5731 2.3777 62.4733 2.03325 62.4184 1.81456C62.2708 2.48742 62.0549 3.22372 61.7704 4.02235L60.6866 7.15024H64.1838ZM65.8993 12.1743L64.7008 8.84117H60.1119L58.938 12.1743H56.8693L61.3595 0.123072H63.4941L67.9844 12.1743H65.8993Z" fill="black"/>
<path d="M79.0114 8.91547C79.0114 9.98242 78.6253 10.8199 77.8538 11.4269C77.0822 12.0346 76.0175 12.3387 74.6602 12.3387C73.3029 12.3387 72.1921 12.1281 71.3276 11.7062V9.85087C71.8747 10.1084 72.4563 10.3108 73.0715 10.4586C73.6873 10.6064 74.2609 10.6803 74.7917 10.6803C75.5685 10.6803 76.1421 10.5325 76.5116 10.2369C76.8809 9.94156 77.0654 9.54448 77.0654 9.04646C77.0654 8.59807 76.8958 8.21723 76.5566 7.90562C76.2171 7.59344 75.5167 7.22399 74.4548 6.79687C73.3606 6.35371 72.5886 5.84766 72.14 5.27873C71.6911 4.70906 71.4666 4.02519 71.4666 3.226C71.4666 2.22473 71.8228 1.43637 72.5343 0.861654C73.2452 0.287501 74.2002 0.000144005 75.3989 0.000144005C76.5484 0.000144005 77.6922 0.251674 78.8308 0.754921L78.2064 2.35572C77.1393 1.90733 76.1871 1.68286 75.3499 1.68286C74.7151 1.68286 74.2333 1.82131 73.9049 2.09729C73.5765 2.37363 73.4126 2.73899 73.4126 3.19316C73.4126 3.50533 73.4783 3.77198 73.6093 3.99347C73.7408 4.21514 73.9567 4.42469 74.2579 4.62192C74.5587 4.81878 75.1006 5.07889 75.8837 5.40151C76.7642 5.76854 77.4106 6.1102 77.8209 6.4276C78.2313 6.745 78.5324 7.10401 78.7241 7.50332C78.9149 7.90263 79.0114 8.3736 79.0114 8.91547Z" fill="black"/>
<path d="M90.7769 8.91547C90.7769 9.98242 90.3908 10.8199 89.6192 11.4269C88.8477 12.0346 87.783 12.3387 86.4257 12.3387C85.0684 12.3387 83.9576 12.1281 83.0931 11.7062V9.85087C83.6402 10.1084 84.2218 10.3108 84.837 10.4586C85.4528 10.6064 86.0264 10.6803 86.5572 10.6803C87.334 10.6803 87.9078 10.5325 88.2771 10.2369C88.6463 9.94156 88.8311 9.54448 88.8311 9.04646C88.8311 8.59807 88.6614 8.21723 88.322 7.90562C87.9826 7.59344 87.2821 7.22399 86.2202 6.79687C85.126 6.35371 84.3541 5.84766 83.9055 5.27873C83.4568 4.70906 83.2321 4.02519 83.2321 3.226C83.2321 2.22473 83.5883 1.43637 84.2998 0.861654C85.0107 0.287501 85.9657 0.000144005 87.1644 0.000144005C88.314 0.000144005 89.4577 0.251674 90.5963 0.754921L89.9719 2.35572C88.9048 1.90733 87.9528 1.68286 87.1153 1.68286C86.4805 1.68286 85.9987 1.82131 85.6703 2.09729C85.3419 2.37363 85.1781 2.73899 85.1781 3.19316C85.1781 3.50533 85.244 3.77198 85.3748 3.99347C85.5063 4.21514 85.7222 4.42469 86.0236 4.62192C86.3242 4.81878 86.866 5.07889 87.6492 5.40151C88.5297 5.76854 89.1761 6.1102 89.5864 6.4276C89.9967 6.745 90.2979 7.10401 90.4895 7.50332C90.6806 7.90263 90.7769 8.3736 90.7769 8.91547Z" fill="black"/>
<path d="M95.6221 0.172141H97.5836V12.1743H95.6221V0.172141Z" fill="black"/>
<path d="M108.183 5.66424H112.6V11.6901C111.878 11.9256 111.184 12.0924 110.519 12.1904C109.854 12.2891 109.136 12.3387 108.364 12.3387C106.547 12.3387 105.146 11.801 104.161 10.7253C103.176 9.6501 102.683 8.13252 102.683 6.17327C102.683 4.24164 103.239 2.72966 104.35 1.63789C105.461 0.546122 106.991 0.000144005 108.939 0.000144005C110.192 0.000144005 111.38 0.240852 112.502 0.722641L111.812 2.35591C110.838 1.90752 109.864 1.68305 108.89 1.68305C107.609 1.68305 106.596 2.08516 105.852 2.88957C105.108 3.69398 104.736 4.79396 104.736 6.18988C104.736 7.65633 105.071 8.77179 105.741 9.53534C106.412 10.2981 107.376 10.6803 108.635 10.6803C109.27 10.6803 109.949 10.6012 110.671 10.4418V7.34695H108.183V5.66424Z" fill="black"/>
<path d="M128.002 12.1743H125.597L119.694 2.61038H119.629L119.67 3.14405C119.746 4.16211 119.784 5.09229 119.784 5.93551V12.1743H118.004V0.172146H120.384L126.27 9.687H126.319C126.308 9.56124 126.286 9.10259 126.254 8.31198C126.221 7.52119 126.204 6.90375 126.204 6.46059V0.172146H128.002V12.1743Z" fill="black"/>
<path d="M138.881 12.1743L135.4 2.15099H135.335C135.428 3.63927 135.474 5.03519 135.474 6.33781V12.1743H133.693V0.172146H136.459L139.792 9.72003H139.841L143.273 0.172146H146.048V12.1743H144.16V6.23891C144.16 5.64237 144.175 4.86557 144.205 3.90759C144.235 2.95017 144.261 2.36968 144.283 2.16722H144.217L140.613 12.1743H138.881Z" fill="black"/>
<path d="M158.519 12.1743H151.73V0.172146H158.519V1.8306H153.692V5.09807H158.216V6.73992H153.692V10.5076H158.519V12.1743Z" fill="black"/>
<path d="M173.634 12.1743H171.228L165.326 2.61038H165.26L165.301 3.14405C165.378 4.16211 165.416 5.09229 165.416 5.93551V12.1743H163.635V0.172146H166.016L171.901 9.687H171.951C171.94 9.56124 171.918 9.10259 171.885 8.31198C171.852 7.52119 171.836 6.90375 171.836 6.46059V0.172146H173.634V12.1743Z" fill="black"/>
<path d="M183.47 12.1743H181.508V1.85561H177.978V0.172146H187V1.85561H183.47V12.1743Z" fill="black"/>
<path d="M140.843 17.5273C139.978 18.0253 139.317 18.7424 138.86 19.678C138.403 20.614 138.175 21.7057 138.175 22.9533C138.175 24.9346 138.646 26.4576 139.587 27.5223C140.528 28.5864 141.877 29.1191 143.634 29.1191C144.827 29.1191 145.895 28.9406 146.836 28.5851V26.9026C146.321 27.061 145.826 27.1911 145.35 27.292C144.874 27.3935 144.381 27.4443 143.872 27.4443C142.696 27.4443 141.797 27.0662 141.176 26.3109C140.554 25.5561 140.244 24.4423 140.244 22.9701C140.244 21.5632 140.567 20.4609 141.212 19.6617C141.858 18.8624 142.745 18.4633 143.872 18.4633C144.37 18.4633 144.845 18.536 145.297 18.6808C145.748 18.8254 146.176 18.9941 146.581 19.1858L147.287 17.5521C146.248 17.0379 145.114 16.7804 143.888 16.7804C142.723 16.7804 141.708 17.0291 140.843 17.5273Z" fill="#2E73BC"/>
<path d="M159.39 16.9524V24.53C159.39 26.4725 158.464 27.4443 156.615 27.4443C155.663 27.4443 154.957 27.2088 154.497 26.738C154.037 26.2676 153.807 25.5371 153.807 24.5463V16.9524H151.838V24.6858C151.838 26.0651 152.25 27.1483 153.077 27.9367C153.903 28.7251 155.06 29.1191 156.549 29.1191C157.551 29.1191 158.411 28.9396 159.131 28.5812C159.851 28.2227 160.401 27.7109 160.781 27.0461C161.161 26.3809 161.352 25.605 161.352 24.7187V16.9524H159.39Z" fill="#2E73BC"/>
<path d="M166.944 16.9524V28.9546H168.905V24.1602H170.843L173.716 28.9546H175.949L172.559 23.6432C174.113 23.0084 174.89 21.944 174.89 20.4494C174.89 19.2787 174.518 18.4032 173.773 17.8227C173.029 17.2428 171.882 16.9524 170.334 16.9524H166.944ZM168.905 18.6109H170.202C171.095 18.6109 171.762 18.7587 172.205 19.054C172.649 19.3496 172.87 19.8366 172.87 20.5153C172.87 21.1831 172.665 21.6869 172.254 22.0261C171.844 22.3654 171.182 22.5352 170.268 22.5352H168.905V18.6109Z" fill="#2E73BC"/>
<path d="M180.211 16.9524V28.9546H187V27.2879H182.173V23.5202H186.696V21.8783H182.173V18.6109H187V16.9524H180.211Z" fill="#2E73BC"/>
<path d="M133.602 23.8362H57.6027C57.1134 23.8362 56.7164 23.4391 56.7164 22.9499C56.7164 22.4604 57.1134 22.0633 57.6027 22.0633H133.602C134.092 22.0633 134.489 22.4604 134.489 22.9499C134.489 23.4391 134.092 23.8362 133.602 23.8362Z" fill="black"/>
<path d="M37.6216 21.0487H9.95887C9.37464 21.0487 8.90106 20.5753 8.90106 19.9909C8.90106 19.4067 9.37464 18.9331 9.95887 18.9331H37.6216C38.2056 18.9331 38.6792 19.4067 38.6792 19.9909C38.6792 20.5753 38.2056 21.0487 37.6216 21.0487Z" fill="black"/>
<path d="M22.3994 0.586903C21.8323 0.73282 21.4918 1.30826 21.6359 1.87327L21.7267 2.23061C21.7648 2.37671 21.8006 2.52264 21.8389 2.66651C22.9474 7.03507 23.8041 10.805 21.1281 13.0412C21.0434 13.111 20.9566 13.1787 20.8656 13.2464C20.3959 13.5933 20.2965 14.2555 20.6434 14.7252C20.8509 15.0064 21.1703 15.1566 21.4939 15.1566C21.7118 15.1566 21.9318 15.0889 22.1223 14.9495C22.8987 14.3761 23.4889 13.7372 23.9248 13.0412C25.7251 10.1895 24.9593 6.4195 24.0177 2.66651C23.9396 2.34706 23.8571 2.02759 23.7767 1.70795L23.6858 1.35269C23.5641 0.87314 23.1337 0.554057 22.6608 0.554057C22.5746 0.554057 22.4869 0.564697 22.3994 0.586903Z" fill="#2E73BC"/>
<path d="M7.30277 0.550915C3.27698 0.550915 0 3.82807 0 7.85386C0 10.4962 1.41103 12.8169 3.5203 14.099C1.41103 15.3789 0 17.6997 0 20.3419C0 24.3679 3.27698 27.6449 7.30277 27.6449H8.96347V32.9084C8.96347 33.5156 9.2999 34.0636 9.84159 34.3407C10.3473 34.5987 10.9418 34.5734 11.4198 34.2772L13.1333 33.4501L14.9147 34.2815C15.1706 34.4381 15.4605 34.5183 15.7524 34.5183C16.002 34.5183 16.2517 34.4592 16.4844 34.3407C17.0261 34.0655 17.3623 33.5156 17.3623 32.9084V27.6449H37.5829C38.1667 27.6449 38.6407 27.1709 38.6407 26.5873C38.6407 26.003 38.1667 25.5295 37.5829 25.5295H16.3045C15.7206 25.5295 15.2467 26.003 15.2467 26.5873V32.1023L13.9689 31.5059C13.4528 31.1906 12.8032 31.1926 12.2871 31.51L11.0793 32.0916V26.5873C11.0793 26.003 10.6053 25.5295 10.0215 25.5295H7.30277C4.44264 25.5295 2.11543 23.2021 2.11543 20.3419C2.11543 17.4818 4.44264 15.1566 7.30277 15.1566H35.2198C35.3551 15.1566 35.4841 15.1292 35.6048 15.0826C40.4579 14.5538 42.988 11.2008 42.988 7.88336C42.988 4.24046 39.9078 0.550915 34.0224 0.550915H7.30277ZM2.11543 7.85386C2.11543 4.99373 4.44264 2.66653 7.30277 2.66653H34.0224C38.7295 2.66653 40.8725 5.3703 40.8725 7.88336C40.8725 9.20781 40.3098 10.4496 39.29 11.3742C38.0885 12.4637 36.3431 13.0412 34.2424 13.0412H7.30277C4.44264 13.0412 2.11543 10.7142 2.11543 7.85386Z" fill="#2E73BC"/>
<g opacity="0.289993">
<path d="M21.1282 13.0413H7.30294C4.44262 13.0413 2.11542 10.714 2.11542 7.85391C2.11542 4.99378 4.44262 2.66658 7.30294 2.66658H21.8389C22.9474 7.03514 23.8041 10.8051 21.1282 13.0413Z" fill="#2E73BC"/>
</g>
</svg>
