<svg width="22" height="23" viewBox="0 0 22 23" fill="none" xmlns="http://www.w3.org/2000/svg">
<path fill-rule="evenodd" clip-rule="evenodd" d="M11 0.998779C4.925 0.998779 0 5.92378 0 11.9988C0 18.0738 4.925 22.9988 11 22.9988C17.075 22.9988 22 18.0738 22 11.9988C22 5.92378 17.075 0.998779 11 0.998779ZM15.768 10.1388C15.8558 10.0384 15.9226 9.92152 15.9646 9.79495C16.0065 9.66838 16.0227 9.53469 16.0123 9.40176C16.0018 9.26883 15.9648 9.13934 15.9036 9.02091C15.8423 8.90247 15.758 8.79748 15.6555 8.71212C15.5531 8.62676 15.4346 8.56274 15.3071 8.52384C15.1796 8.48494 15.0455 8.47194 14.9129 8.48561C14.7802 8.49927 14.6517 8.53933 14.5347 8.60341C14.4178 8.6675 14.3149 8.75432 14.232 8.85878L9.932 14.0178L7.707 11.7918C7.5184 11.6096 7.2658 11.5088 7.0036 11.5111C6.7414 11.5134 6.49059 11.6186 6.30518 11.804C6.11977 11.9894 6.0146 12.2402 6.01233 12.5024C6.01005 12.7646 6.11084 13.0172 6.293 13.2058L9.293 16.2058C9.39126 16.304 9.50889 16.3806 9.63842 16.4308C9.76794 16.4811 9.9065 16.5037 10.0453 16.4974C10.184 16.4911 10.32 16.456 10.4444 16.3942C10.5688 16.3325 10.6791 16.2455 10.768 16.1388L15.768 10.1388Z" fill="#2E73BC"/>
</svg>
