<svg width="13" height="7" viewBox="0 0 13 7" fill="none" xmlns="http://www.w3.org/2000/svg">
<path d="M0.273799 0.267557C0.449244 0.0961624 0.687166 -0.00012207 0.935245 -0.00012207C1.18332 -0.00012207 1.42125 0.0961624 1.59669 0.267557L6.22775 4.79308L10.8588 0.267557C11.0353 0.10102 11.2716 0.00886838 11.5169 0.0109514C11.7622 0.0130345 11.9968 0.109185 12.1703 0.278694C12.3438 0.448203 12.4422 0.677507 12.4443 0.91722C12.4464 1.15693 12.3521 1.38787 12.1817 1.5603L6.88919 6.7322C6.71375 6.90359 6.47583 6.99988 6.22775 6.99988C5.97967 6.99988 5.74175 6.90359 5.5663 6.7322L0.273799 1.5603C0.0984076 1.38886 -0.00012207 1.15636 -0.00012207 0.91393C-0.00012207 0.671504 0.0984076 0.439004 0.273799 0.267557Z" fill="#383838"/>
</svg>
