<svg width="472" height="472" viewBox="0 0 472 472" fill="none" xmlns="http://www.w3.org/2000/svg">
<path opacity="0.9" d="M235.622 177.764C265.556 194.209 302.646 185.675 331.4 205.339C356.652 222.642 381.329 262.658 378.289 292.961C374.9 326.747 342.596 344.447 309.311 340.331C272.674 335.809 252.406 303.987 225.295 282.869C177.896 245.883 47.9737 184.014 99.5445 105.841C115.592 81.5897 165.36 60.1326 188.922 89.7081C211.588 118.16 193.52 154.608 235.622 177.764Z" fill="white"/>
<path d="M236 403.617C337.086 403.617 419.032 398.832 419.032 392.931C419.032 387.029 337.086 382.245 236 382.245C134.914 382.245 52.9678 387.029 52.9678 392.931C52.9678 398.832 134.914 403.617 236 403.617Z" fill="#F5F5F5"/>
<path d="M198.646 66.0801C203.051 62.1594 208.756 59.5917 215.761 58.3771C222.765 57.1625 230.169 57.9334 237.973 60.6899C245.752 63.4464 252.866 68.4244 259.317 75.624C265.314 82.3201 269.367 89.334 271.476 96.6657C273.579 103.446 273.771 110.674 272.033 117.556C270.38 123.936 266.864 129.678 261.932 134.048C258.422 137.339 254.14 139.692 249.48 140.892C245.32 141.928 241.025 142.323 236.746 142.063C232.636 141.798 225.506 141.097 215.355 139.958C212.978 139.699 210.59 139.567 208.199 139.561C206.562 139.55 204.93 139.737 203.338 140.118C202.075 140.44 200.847 140.889 199.675 141.459C198.542 142.015 196.626 143.044 193.907 144.564C188.319 147.982 183.46 147.384 179.332 142.771C178.306 141.68 177.507 140.397 176.98 138.995C176.454 137.593 176.21 136.101 176.264 134.605C176.371 131.565 177.969 128.661 181.059 125.892C187.353 119.861 195.783 116.574 204.499 116.754C209.46 116.92 214.41 117.336 219.329 118C224.559 118.633 228.42 119.029 230.912 119.161C233.386 119.303 235.868 119.096 238.285 118.548C240.695 118.014 242.924 116.858 244.751 115.196C246.538 113.645 247.969 111.726 248.947 109.57C249.924 107.415 250.425 105.074 250.415 102.707C250.49 97.6727 248.602 92.9936 244.751 88.67C240.201 83.5913 235.572 81.0016 230.865 80.9009C226.157 80.8002 220.553 82.1533 214.052 84.9601C207.438 88.0627 202.167 87.4334 198.24 83.0721C197.122 81.8741 196.267 80.4559 195.729 78.9084C195.191 77.3609 194.982 75.7182 195.115 74.0852C195.144 72.5835 195.471 71.1024 196.077 69.7281C196.683 68.3538 197.556 67.1137 198.646 66.0801ZM153.013 167.739C150.546 165.059 149.169 161.555 149.152 157.912C149.095 154.187 150.703 150.854 153.976 147.915C155.323 146.67 156.913 145.717 158.647 145.118C160.381 144.518 162.22 144.285 164.048 144.432C165.9 144.544 167.711 145.028 169.372 145.855C171.033 146.683 172.51 147.836 173.715 149.247C174.954 150.588 175.911 152.165 176.529 153.884C177.147 155.603 177.413 157.428 177.312 159.252C177.211 161.075 176.744 162.86 175.94 164.5C175.135 166.139 174.009 167.601 172.629 168.797C169.401 171.685 165.939 172.919 162.245 172.497C158.676 172.138 155.377 170.438 153.013 167.739Z" fill="#2E73BC"/>
<g opacity="0.5">
<path d="M283.059 129.375C284.384 126.226 286.582 123.521 289.393 121.578C292.697 119.224 296.554 117.767 300.589 117.349C305.289 116.843 310.041 117.538 314.4 119.369C318.517 120.892 322.235 123.329 325.274 126.496C327.908 129.237 329.737 132.65 330.561 136.361C331.32 139.83 331.024 143.446 329.711 146.745C328.82 149.165 327.333 151.321 325.388 153.013C323.645 154.511 321.684 155.733 319.573 156.638C317.546 157.5 313.962 158.879 308.821 160.773C307.618 161.214 306.442 161.725 305.299 162.302C304.513 162.688 303.777 163.17 303.109 163.737C302.578 164.191 302.097 164.701 301.674 165.257C301.269 165.795 300.598 166.748 299.664 168.089C297.776 171.072 295.306 171.953 292.253 170.732C291.5 170.456 290.808 170.033 290.219 169.489C289.629 168.945 289.153 168.289 288.817 167.56C288.48 166.707 288.325 165.793 288.361 164.876C288.396 163.96 288.623 163.06 289.025 162.236C290.59 157.837 293.835 154.239 298.049 152.23C300.462 151.106 302.929 150.104 305.441 149.228C308.094 148.284 310.038 147.538 311.265 147.009C312.483 146.481 313.62 145.785 314.645 144.942C315.671 144.105 316.461 143.015 316.939 141.78C317.422 140.608 317.647 139.346 317.596 138.08C317.546 136.814 317.221 135.574 316.646 134.445C315.383 131.96 313.208 130.059 310.576 129.139C307.178 127.799 304.346 127.67 302.08 128.752C299.329 130.216 296.922 132.25 295.019 134.718C292.59 137.796 289.909 138.74 286.976 137.55C286.154 137.243 285.405 136.768 284.776 136.155C284.147 135.542 283.652 134.806 283.323 133.992C282.975 133.278 282.773 132.503 282.727 131.71C282.682 130.918 282.794 130.124 283.059 129.375ZM285.636 189.036C283.812 188.345 282.311 186.999 281.426 185.26C280.972 184.346 280.727 183.343 280.708 182.323C280.688 181.303 280.894 180.291 281.312 179.36C281.653 178.437 282.182 177.595 282.866 176.888C283.55 176.181 284.375 175.624 285.287 175.254C286.201 174.864 287.185 174.662 288.18 174.662C289.174 174.662 290.159 174.864 291.073 175.254C291.989 175.598 292.826 176.124 293.535 176.798C294.243 177.472 294.809 178.282 295.2 179.179C295.59 180.076 295.795 181.042 295.805 182.02C295.815 182.998 295.628 183.969 295.255 184.873C294.929 185.842 294.393 186.727 293.684 187.465C292.976 188.203 292.113 188.775 291.158 189.14C289.37 189.804 287.398 189.767 285.636 189.036Z" fill="#2E73BC"/>
</g>
<g opacity="0.1">
<path d="M346.552 123.815C345.698 122.472 345.243 120.913 345.24 119.322C345.208 117.436 345.671 115.574 346.58 113.922C347.631 111.998 349.155 110.373 351.008 109.202C352.68 108.025 354.597 107.244 356.615 106.918C358.364 106.634 360.156 106.837 361.798 107.503C363.335 108.125 364.65 109.194 365.574 110.571C366.267 111.551 366.702 112.691 366.839 113.884C366.947 114.946 366.896 116.019 366.688 117.066C366.48 118.079 366.058 119.816 365.423 122.276C365.279 122.855 365.166 123.442 365.083 124.032C364.973 124.759 365.031 125.502 365.253 126.203C365.357 126.506 365.545 127.015 365.829 127.733C366.001 128.027 366.113 128.352 366.159 128.69C366.205 129.027 366.183 129.37 366.095 129.7C366.007 130.029 365.855 130.337 365.647 130.607C365.44 130.877 365.18 131.104 364.885 131.273C364.27 131.704 363.51 131.874 362.77 131.745C362.353 131.651 361.96 131.47 361.617 131.215C361.274 130.96 360.988 130.635 360.778 130.263C360.113 129.321 359.645 128.255 359.4 127.129C359.204 126.152 359.182 125.149 359.334 124.164C359.538 122.943 359.806 121.733 360.136 120.539C360.476 119.265 360.703 118.33 360.825 117.707C360.944 117.086 360.979 116.451 360.929 115.819C360.875 115.204 360.664 114.612 360.316 114.101C359.994 113.608 359.569 113.189 359.07 112.875C358.572 112.561 358.011 112.357 357.427 112.279C356.13 112.103 354.815 112.442 353.764 113.223C353.168 113.555 352.647 114.006 352.235 114.548C351.822 115.091 351.526 115.714 351.367 116.376C351.202 117.819 351.347 119.28 351.791 120.662C352.329 122.409 351.98 123.683 350.762 124.504C350.428 124.737 350.049 124.899 349.65 124.978C349.25 125.058 348.838 125.054 348.44 124.967C348.064 124.911 347.703 124.781 347.379 124.583C347.055 124.385 346.773 124.124 346.552 123.815ZM370.105 138.598C369.356 139.11 368.446 139.328 367.547 139.212C367.072 139.144 366.619 138.971 366.22 138.705C365.821 138.438 365.487 138.086 365.243 137.673C364.98 137.299 364.796 136.874 364.705 136.426C364.614 135.977 364.618 135.515 364.715 135.068C364.806 134.614 364.988 134.182 365.249 133.8C365.51 133.417 365.845 133.091 366.235 132.84C366.608 132.579 367.031 132.397 367.477 132.305C367.924 132.212 368.384 132.211 368.831 132.302C369.279 132.384 369.706 132.559 370.085 132.814C370.463 133.069 370.785 133.399 371.03 133.784C371.315 134.166 371.512 134.605 371.608 135.072C371.705 135.538 371.697 136.02 371.587 136.484C371.375 137.349 370.846 138.104 370.105 138.598Z" fill="#2E73BC"/>
</g>
<path d="M175.385 386.681L168.249 384.831L172.506 368.509L179.643 370.36L175.385 386.681Z" fill="#FFC3BD"/>
<path d="M168.173 382.943L176.141 385.464C176.207 385.48 176.269 385.51 176.324 385.551C176.378 385.592 176.424 385.643 176.459 385.702C176.493 385.761 176.515 385.826 176.524 385.894C176.532 385.962 176.527 386.03 176.509 386.096L174.828 392.279C174.711 392.604 174.472 392.87 174.163 393.023C173.853 393.176 173.496 393.204 173.167 393.101C170.411 392.157 169.136 391.609 165.615 390.495C163.453 389.816 158.242 388.277 155.231 387.333C152.22 386.389 153.343 383.557 154.655 383.736C160.716 384.369 164.237 383.859 166.757 382.981C167.212 382.813 167.71 382.799 168.173 382.943Z" fill="#263238"/>
<path opacity="0.2" d="M179.643 370.369L172.506 368.519L170.316 376.93L177.453 378.78L179.643 370.369Z" fill="black"/>
<path d="M197.626 203.46C197.626 203.46 184.561 265.547 181.087 285.872C177.311 308.131 169.013 371.861 169.013 371.861L181.144 376.269C181.144 376.269 200.128 308.688 203.007 287.288C209.039 266.369 224.322 203.46 224.322 203.46H197.626Z" fill="#2E73BC"/>
<path opacity="0.3" d="M214.401 223.728C210.162 233.904 208.623 252.435 209.36 263.518C212.72 250.434 216.449 235.49 219.338 223.785C218.403 220.566 217.119 217.186 214.401 223.728Z" fill="black"/>
<path d="M180.898 377.704L167.89 373.947L168.381 368.443L183.862 372.795L180.898 377.704Z" fill="#263238"/>
<path d="M165.247 383.34C165.891 383.524 166.552 383.641 167.22 383.689C167.254 383.695 167.289 383.689 167.319 383.674C167.35 383.659 167.375 383.634 167.39 383.604C167.408 383.577 167.417 383.546 167.417 383.514C167.417 383.482 167.408 383.451 167.39 383.425C167.211 383.198 165.653 381.244 164.681 381.301C164.569 381.305 164.46 381.337 164.364 381.395C164.269 381.453 164.189 381.534 164.133 381.631C164.037 381.767 163.979 381.926 163.964 382.091C163.949 382.257 163.978 382.424 164.048 382.575C164.341 382.968 164.767 383.24 165.247 383.34ZM166.852 383.34C165.493 383.179 164.577 382.849 164.35 382.396C164.306 382.298 164.29 382.189 164.303 382.083C164.317 381.976 164.359 381.875 164.426 381.791C164.452 381.743 164.49 381.703 164.537 381.673C164.583 381.643 164.636 381.626 164.69 381.621C165.2 381.603 166.201 382.556 166.852 383.321V383.34Z" fill="#2E73BC"/>
<path d="M167.182 383.689H167.267C167.295 383.684 167.321 383.674 167.344 383.657C167.367 383.641 167.386 383.619 167.399 383.594C167.399 383.509 168.268 381.593 167.777 380.706C167.71 380.592 167.62 380.494 167.512 380.418C167.405 380.341 167.283 380.288 167.154 380.262C167.012 380.221 166.86 380.227 166.722 380.28C166.584 380.333 166.467 380.429 166.389 380.555C165.964 381.253 166.54 383.009 167.107 383.632C167.125 383.659 167.152 383.678 167.182 383.689ZM167.182 380.611C167.247 380.631 167.307 380.664 167.359 380.708C167.411 380.751 167.454 380.805 167.484 380.866C167.655 381.646 167.558 382.461 167.21 383.179C166.767 382.48 166.427 381.178 166.71 380.725C166.71 380.64 166.852 380.545 167.097 380.592L167.182 380.611Z" fill="#2E73BC"/>
<path d="M207.736 150.285C207.104 151.814 206.499 153.173 205.848 154.57C205.197 155.968 204.498 157.336 203.79 158.705C202.355 161.433 200.845 164.124 199.183 166.748C195.878 172.203 191.88 177.207 187.289 181.635L187.119 181.805C186.878 182.022 186.612 182.209 186.326 182.362C185.54 182.786 184.676 183.046 183.787 183.126C183.278 183.163 182.767 183.163 182.257 183.126C181.496 183.077 180.739 182.973 179.992 182.815C178.651 182.532 177.462 182.182 176.291 181.814C173.969 181.078 171.807 180.181 169.683 179.275C167.559 178.369 165.464 177.387 163.406 176.32C161.348 175.254 159.328 174.187 157.326 172.978C156.862 172.695 156.515 172.255 156.346 171.739C156.177 171.222 156.197 170.662 156.404 170.159C156.612 169.656 156.991 169.244 157.475 168.996C157.959 168.748 158.515 168.68 159.044 168.806C163.425 169.863 167.795 171.043 172.1 172.091C174.243 172.629 176.386 173.101 178.444 173.498C179.414 173.694 180.394 173.836 181.38 173.922C181.751 173.944 182.122 173.944 182.493 173.922C182.635 173.922 182.692 173.922 182.654 173.922C182.318 173.932 181.992 174.033 181.71 174.215L180.766 174.942C182.592 172.92 184.286 170.783 185.835 168.542C187.421 166.248 188.922 163.822 190.366 161.386C191.811 158.951 193.198 156.392 194.511 153.834C195.823 151.276 197.125 148.642 198.287 146.178L198.343 146.056C198.9 144.804 199.932 143.825 201.211 143.333C202.49 142.842 203.912 142.879 205.164 143.436C206.415 143.993 207.395 145.025 207.886 146.304C208.377 147.583 208.34 149.005 207.783 150.256L207.736 150.285Z" fill="#FFC3BD"/>
<path d="M206.283 140.297C200.203 140.467 196.031 147.066 192.047 155.288C195.101 160.567 199.477 164.959 204.744 168.032C204.744 168.032 220.716 139.891 206.283 140.297Z" fill="#E0E0E0"/>
<path d="M157.025 173.017L151.55 171.619L155.817 166.135C155.817 166.135 160.537 166.881 162.33 170.855L160.386 172.242C159.914 172.605 159.37 172.862 158.79 172.996C158.21 173.129 157.608 173.136 157.025 173.017Z" fill="#FFC3BD"/>
<path d="M150.218 166.012L151.276 165.068C151.708 164.689 152.261 164.475 152.835 164.462C153.41 164.45 153.971 164.641 154.419 165.002L155.816 166.125L151.549 171.61L149.803 168.891C149.514 168.442 149.397 167.903 149.473 167.374C149.549 166.845 149.814 166.361 150.218 166.012Z" fill="#FFC3BD"/>
<path d="M239.266 385.832H231.799L230.015 369.198H237.482L239.266 385.832Z" fill="#FFC3BD"/>
<path d="M231.148 385.001H239.54C239.678 384.993 239.815 385.04 239.919 385.132C240.023 385.224 240.087 385.353 240.097 385.492L240.503 391.873C240.495 392.216 240.354 392.543 240.108 392.783C239.863 393.023 239.534 393.157 239.19 393.157C236.273 393.1 234.876 392.94 231.185 392.94C228.92 392.94 222.689 393.166 219.527 393.166C216.365 393.166 216.478 390.183 217.809 389.919C223.765 388.701 227.749 387.03 229.864 385.445C230.231 385.159 230.682 385.004 231.148 385.001Z" fill="#263238"/>
<path opacity="0.2" d="M237.482 369.198H230.015L230.94 377.779H238.407L237.482 369.198Z" fill="black"/>
<path d="M212.221 203.46C212.221 203.46 213.873 265.878 215.053 286.447C216.374 308.971 227.561 375.703 227.561 375.703H241.249C241.249 375.703 238.247 308.122 235.981 286.023C236.925 261.818 237.548 203.441 237.548 203.441L212.221 203.46Z" fill="#2E73BC"/>
<path d="M241.796 375.703H226.276L225.54 370.709L242.211 370.992L241.796 375.703Z" fill="#263238"/>
<path d="M228.504 386.247C229.175 386.233 229.843 386.147 230.496 385.992C230.528 385.986 230.557 385.97 230.579 385.947C230.601 385.923 230.615 385.893 230.619 385.86C230.628 385.829 230.626 385.795 230.614 385.764C230.602 385.733 230.581 385.708 230.553 385.69C230.317 385.539 228.202 384.142 227.286 384.491C227.184 384.529 227.093 384.592 227.022 384.675C226.951 384.757 226.902 384.857 226.88 384.963C226.821 385.125 226.81 385.3 226.849 385.468C226.887 385.635 226.974 385.788 227.097 385.907C227.511 386.185 228.01 386.305 228.504 386.247ZM230.014 385.756C228.674 386.011 227.692 385.964 227.343 385.634C227.271 385.555 227.222 385.458 227.2 385.353C227.178 385.248 227.185 385.14 227.22 385.039C227.229 384.987 227.251 384.938 227.284 384.897C227.317 384.855 227.36 384.823 227.409 384.803C227.9 384.614 229.146 385.218 230.014 385.756Z" fill="#2E73BC"/>
<path d="M230.449 386.002H230.534C230.56 385.986 230.581 385.966 230.597 385.941C230.614 385.917 230.624 385.889 230.629 385.86C230.629 385.775 230.799 383.708 230.043 383.028C229.947 382.936 229.83 382.867 229.702 382.828C229.574 382.788 229.439 382.779 229.307 382.801C229.161 382.803 229.02 382.853 228.906 382.944C228.791 383.034 228.71 383.16 228.675 383.302C228.505 384.085 229.619 385.586 230.364 386.011L230.449 386.002ZM229.392 383.085C229.462 383.083 229.532 383.095 229.597 383.121C229.662 383.147 229.72 383.186 229.77 383.236C230.183 383.921 230.356 384.725 230.261 385.52C229.609 384.992 228.863 383.849 228.977 383.339C228.977 383.236 229.062 383.122 229.317 383.094L229.392 383.085Z" fill="#2E73BC"/>
<path d="M200.77 145.102C201.172 143.88 201.897 142.789 202.867 141.944C203.837 141.098 205.017 140.53 206.283 140.297C208.127 139.867 209.997 139.552 211.88 139.353C217.54 139.041 223.213 139.041 228.872 139.353C231.837 139.486 234.857 139.835 237.265 140.175H237.35C237.968 140.247 238.565 140.444 239.105 140.754C239.645 141.064 240.116 141.481 240.49 141.979C240.863 142.477 241.132 143.046 241.278 143.651C241.425 144.256 241.447 144.885 241.343 145.499C239.458 155.119 238.225 164.854 237.652 174.64C237.066 188.857 237.859 200.015 237.576 203.442H197.626C195.2 168.769 198.334 153.004 200.77 145.102Z" fill="#E0E0E0"/>
<path d="M231.581 118.198C232.278 118.701 232.833 119.377 233.19 120.159C233.548 120.94 233.696 121.802 233.621 122.658C233.546 123.514 233.249 124.336 232.761 125.044C232.273 125.751 231.61 126.32 230.836 126.694C232.45 129.366 228.155 134.086 223.831 131.122C219.508 128.157 225.615 115.678 231.581 118.198Z" fill="#263238"/>
<path d="M213.702 115.329C213.109 115.346 212.521 115.209 211.997 114.932C211.472 114.654 211.029 114.245 210.71 113.744C210.392 113.244 210.208 112.669 210.178 112.076C210.148 111.484 210.273 110.893 210.54 110.363C208.529 109.58 208.888 105.19 212.513 105.001C216.138 104.813 218.007 114.224 213.702 115.329Z" fill="#263238"/>
<path d="M212.523 143.063C212.253 142.815 212.051 142.501 211.939 142.152C211.827 141.803 211.808 141.431 211.883 141.072C211.958 140.713 212.125 140.38 212.368 140.105C212.611 139.83 212.921 139.623 213.269 139.505C216.912 138.164 217.573 135.521 217.281 132.642C217.197 131.832 217.064 131.028 216.884 130.234L223.067 125.297L227.617 121.672C226.485 126.392 225.22 134.615 227.617 138.778C227.886 139.213 227.99 139.731 227.91 140.236C227.831 140.742 227.573 141.202 227.183 141.534C225.616 142.922 222.406 144.715 217.12 144.432C214.694 144.309 213.344 143.753 212.523 143.063Z" fill="#FFC3BD"/>
<path d="M198.721 145.272C199.171 143.913 199.965 142.693 201.025 141.731C202.085 140.768 203.376 140.096 204.772 139.778C206.564 139.494 208.37 139.305 210.181 139.212C210.37 139.185 210.563 139.205 210.743 139.271C210.922 139.337 211.082 139.447 211.209 139.59C211.335 139.733 211.424 139.906 211.467 140.092C211.51 140.278 211.506 140.472 211.456 140.656C208.293 152.4 203.781 175.896 205.178 204.999C205.185 205.18 205.154 205.361 205.088 205.53C205.022 205.699 204.923 205.852 204.796 205.981C204.668 206.11 204.516 206.212 204.348 206.28C204.18 206.348 204 206.381 203.819 206.377H195.889C195.545 206.383 195.212 206.258 194.958 206.026C194.703 205.794 194.547 205.474 194.52 205.131C192.132 169.571 196.352 151.852 198.721 145.272Z" fill="#263238"/>
<path d="M237.048 139.466C234.509 139.103 231.954 138.87 229.392 138.768C228.928 138.734 228.467 138.865 228.091 139.138C227.714 139.411 227.446 139.808 227.334 140.259C224.398 153.192 221.783 181.928 221.67 205.046C221.673 205.222 221.712 205.396 221.783 205.557C221.853 205.718 221.955 205.864 222.082 205.986C222.209 206.108 222.359 206.203 222.523 206.267C222.687 206.331 222.863 206.362 223.039 206.358H237.199C237.549 206.366 237.889 206.236 238.145 205.996C238.401 205.756 238.553 205.425 238.567 205.074C238.662 200.421 238.02 189.517 238.567 175.98C239.091 166.334 240.302 156.738 242.192 147.264C242.683 144.611 239.851 139.863 237.048 139.466Z" fill="#263238"/>
<path d="M242.022 143.573C245.053 148.142 247.809 152.72 250.415 157.525C251.698 159.932 252.963 162.377 254.106 164.945C254.672 166.229 255.229 167.541 255.748 168.929C256.32 170.43 256.763 171.977 257.07 173.554C257.302 174.703 257.353 175.882 257.221 177.047C257.067 177.99 256.823 178.916 256.494 179.813C255.955 181.275 255.295 182.69 254.521 184.042C253.131 186.494 251.583 188.853 249.886 191.103C246.621 195.461 243.05 199.581 239.2 203.432C238.755 203.878 238.162 204.144 237.533 204.182C236.905 204.219 236.284 204.023 235.79 203.633C235.296 203.243 234.963 202.684 234.853 202.064C234.744 201.444 234.866 200.805 235.197 200.269V200.213C237.944 195.785 240.72 191.273 243.231 186.799C244.477 184.571 245.666 182.305 246.62 180.115C247.573 177.925 248.272 175.527 247.781 175.461C247.48 174.457 247.114 173.473 246.686 172.516C246.214 171.44 245.676 170.326 245.109 169.221C243.958 167.003 242.721 164.747 241.428 162.528C238.841 158.073 236.085 153.579 233.356 149.227V149.171C232.614 148.022 232.359 146.625 232.646 145.287C232.934 143.95 233.741 142.781 234.89 142.039C236.04 141.296 237.437 141.041 238.774 141.329C240.112 141.616 241.28 142.424 242.022 143.573Z" fill="#FFC3BD"/>
<path d="M236.151 139.344C242.231 139.231 245.45 144.376 249.433 152.56C244.921 160.915 236.312 164.53 236.312 164.53C236.312 164.53 224.2 139.552 236.151 139.344Z" fill="#E0E0E0"/>
<path d="M233.036 200.024L229.533 201.138L236.019 206.066C236.019 206.066 241.324 203.309 239.662 200.808L238.586 200.326C236.835 199.553 234.861 199.446 233.036 200.024Z" fill="#FFC3BD"/>
<path d="M227.57 205.462L231.507 209.417C231.634 209.541 231.786 209.637 231.952 209.7C232.118 209.762 232.296 209.79 232.473 209.78C232.651 209.77 232.824 209.724 232.983 209.643C233.142 209.563 233.282 209.451 233.395 209.313L236.009 206.066L229.524 201.138L227.504 203.904C227.318 204.125 227.221 204.407 227.233 204.696C227.246 204.984 227.366 205.258 227.57 205.462Z" fill="#FFC3BD"/>
<path opacity="0.2" d="M216.884 130.272C217.064 131.066 217.196 131.87 217.28 132.679C219.621 133.274 222.944 130.593 223.256 128.318C223.296 127.32 223.232 126.32 223.067 125.335L216.884 130.272Z" fill="black"/>
<path d="M231.497 114.97C229.901 121.936 229.335 126.09 225.049 129.196C223.647 130.221 221.999 130.857 220.271 131.037C218.544 131.218 216.799 130.938 215.215 130.225C213.631 129.512 212.264 128.392 211.254 126.98C210.244 125.567 209.626 123.911 209.464 122.182C208.916 115.649 211.616 105.35 219.244 103.519C226.871 101.688 233.092 107.993 231.497 114.97Z" fill="#FFC3BD"/>
<path d="M228.269 121.068C226.249 121.172 224.096 114.045 228.552 110.609C227.844 110.996 225.909 110.288 226.249 108.957C224.936 109.504 219.197 109.268 220.585 106.936C217.668 107.692 211.305 106.427 210.625 103.642C209.946 100.857 213.231 100.763 213.741 101.131C212.296 99.1106 212.325 96.1465 216.157 95.0703C219.99 93.9941 225.767 99.5354 225.767 99.5354C225.163 98.0722 227.287 96.8922 229.487 98.1477C231.686 99.4033 232.715 102.972 232.715 102.972C232.715 101.895 237.85 103.34 235.415 107.852C237.935 108.796 239.087 110.137 238.927 112.468C238.766 114.8 237.171 114.932 237.171 114.932C237.508 115.772 237.555 116.7 237.304 117.569C237.052 118.438 236.517 119.198 235.783 119.728C233.168 121.833 230.884 119.359 228.269 121.068Z" fill="#263238"/>
<path d="M232.271 121.606C231.383 122.906 230.072 123.856 228.561 124.297C226.617 124.816 225.956 123.079 226.749 121.267C227.466 119.633 229.335 117.387 231.167 117.67C232.998 117.953 233.366 119.983 232.271 121.606Z" fill="#FFC3BD"/>
<path d="M219.952 114.687C219.857 115.253 219.461 115.678 219.074 115.631C218.687 115.583 218.441 115.074 218.536 114.498C218.63 113.922 219.027 113.554 219.414 113.554C219.801 113.554 219.999 114.111 219.952 114.687Z" fill="#263238"/>
<path d="M213.042 113.431C212.948 114.007 212.561 114.432 212.174 114.375C211.787 114.319 211.541 113.818 211.635 113.242C211.73 112.666 212.117 112.298 212.504 112.298C212.891 112.298 213.136 112.865 213.042 113.431Z" fill="#263238"/>
<path d="M215.77 114.715C214.764 116.376 213.535 117.891 212.116 119.218C212.483 119.563 212.92 119.826 213.397 119.988C213.874 120.151 214.38 120.21 214.882 120.162L215.77 114.715Z" fill="#ED847E"/>
<path d="M216.11 122.975C216.797 123.052 217.492 122.992 218.155 122.798C218.818 122.603 219.435 122.278 219.971 121.842C220.002 121.809 220.02 121.765 220.02 121.719C220.02 121.674 220.002 121.63 219.971 121.597C219.937 121.567 219.893 121.551 219.848 121.551C219.803 121.551 219.76 121.567 219.726 121.597C219.136 122.064 218.449 122.392 217.715 122.555C216.981 122.719 216.219 122.714 215.487 122.541C215.465 122.535 215.441 122.534 215.419 122.538C215.396 122.541 215.374 122.55 215.355 122.562C215.335 122.575 215.319 122.591 215.306 122.61C215.293 122.629 215.284 122.65 215.279 122.673C215.274 122.695 215.273 122.717 215.277 122.739C215.281 122.761 215.289 122.783 215.301 122.801C215.314 122.82 215.33 122.836 215.349 122.848C215.368 122.86 215.389 122.868 215.412 122.871C215.641 122.923 215.875 122.957 216.11 122.975Z" fill="#263238"/>
<path d="M220.235 110.76C220.178 110.775 220.126 110.804 220.084 110.844C220.051 110.875 220.025 110.913 220.007 110.954C219.989 110.995 219.979 111.04 219.979 111.085C219.979 111.13 219.989 111.175 220.007 111.216C220.025 111.258 220.051 111.295 220.084 111.326C220.451 111.737 220.913 112.053 221.429 112.247C221.945 112.441 222.5 112.507 223.048 112.44C223.093 112.435 223.137 112.422 223.177 112.399C223.217 112.377 223.251 112.347 223.279 112.31C223.306 112.274 223.326 112.232 223.336 112.188C223.347 112.144 223.348 112.098 223.34 112.053C223.332 112.008 223.316 111.964 223.291 111.925C223.266 111.887 223.234 111.853 223.196 111.827C223.159 111.801 223.116 111.782 223.071 111.772C223.026 111.762 222.98 111.761 222.934 111.77C222.502 111.808 222.066 111.742 221.664 111.578C221.261 111.414 220.904 111.156 220.622 110.826C220.569 110.78 220.506 110.75 220.437 110.738C220.369 110.727 220.299 110.734 220.235 110.76Z" fill="#263238"/>
<path d="M211.088 109.051C211.14 109.074 211.196 109.086 211.253 109.086C211.31 109.086 211.366 109.074 211.418 109.051C211.821 108.85 212.263 108.74 212.714 108.728C213.164 108.717 213.611 108.804 214.024 108.985C214.104 109.03 214.199 109.043 214.289 109.02C214.379 108.997 214.456 108.941 214.505 108.862C214.546 108.78 214.555 108.686 214.528 108.598C214.502 108.51 214.443 108.436 214.364 108.39C213.854 108.145 213.296 108.019 212.73 108.019C212.165 108.019 211.607 108.145 211.097 108.39C211.056 108.408 211.019 108.434 210.989 108.468C210.958 108.501 210.935 108.54 210.921 108.583C210.907 108.626 210.901 108.671 210.906 108.716C210.91 108.761 210.924 108.804 210.946 108.843C210.968 108.927 211.018 109 211.088 109.051Z" fill="#263238"/>
</svg>
