<svg width="13" height="8" viewBox="0 0 13 8" fill="none" xmlns="http://www.w3.org/2000/svg">
<path d="M12.1707 7.65212C11.9952 7.82352 11.7573 7.9198 11.5092 7.9198C11.2611 7.9198 11.0232 7.82352 10.8478 7.65212L6.21671 3.1266L1.58565 7.65212C1.4092 7.81866 1.17288 7.91081 0.927573 7.90873C0.68227 7.90664 0.447618 7.81049 0.274157 7.64098C0.100695 7.47147 0.00230312 7.24217 0.000171661 7.00246C-0.0019598 6.76275 0.0923395 6.5318 0.262761 6.35938L5.55526 1.18748C5.73071 1.01608 5.96863 0.9198 6.21671 0.9198C6.46479 0.9198 6.70271 1.01608 6.87816 1.18748L12.1707 6.35938C12.3461 6.53082 12.4446 6.76332 12.4446 7.00575C12.4446 7.24817 12.3461 7.48067 12.1707 7.65212Z" fill="#383838"/>
</svg>
