<svg width="26" height="20" viewBox="0 0 26 20" fill="none" xmlns="http://www.w3.org/2000/svg">
<path d="M7.18677 0.681244C7.12114 0.681244 7.05005 0.681244 6.98442 0.686713C5.13052 0.730463 2.85552 1.27187 0.0227051 2.52968V15.8406C3.3477 14.2656 5.85786 13.8117 7.90864 14.0305C8.65786 14.107 9.34692 14.2766 9.9813 14.5008L7.51489 10.1914C7.04458 10.3828 6.53599 10.4922 6.00005 10.4922C3.80106 10.4922 2.00786 8.69843 2.00786 6.49999C2.00786 4.30155 3.80106 2.50781 6.00005 2.50781C8.19849 2.50781 9.99224 4.30155 9.99224 6.49999C9.99224 7.81249 9.35239 8.97733 8.36802 9.71015L11.5016 15.1789C11.8407 15.3539 12.1633 15.5453 12.4805 15.7367V2.44765C11.2118 1.47968 9.7352 0.807025 7.77739 0.69765C7.58599 0.686713 7.38911 0.681244 7.18677 0.681244ZM18.7805 0.681244C18.5782 0.681244 18.3758 0.686713 18.1844 0.69765C16.2266 0.807025 14.7555 1.47968 13.4813 2.44765V15.7367C14.7883 14.9383 16.2211 14.2219 18.0532 14.0305C20.104 13.8117 22.6196 14.2656 25.9391 15.8406V2.52968C23.1118 1.27187 20.8368 0.730463 18.9829 0.686713C18.9118 0.686713 18.8461 0.681244 18.7805 0.681244ZM6.00005 3.49218C4.33317 3.49218 2.99224 4.83202 2.99224 6.49999C2.99224 8.16796 4.33317 9.5078 6.00005 9.5078C7.66802 9.5078 9.00786 8.16796 9.00786 6.49999C9.00786 4.83202 7.66802 3.49218 6.00005 3.49218ZM6.12583 4.25234H6.27895C4.96099 5.24765 4.37692 6.55468 4.45403 8.0914C3.02888 5.96952 4.52349 4.29609 6.12583 4.25234ZM6.84224 14.9984C5.09224 15.0148 2.91567 15.5344 0.0227051 16.9672V19.2914C3.3477 17.7164 5.85786 17.2625 7.90864 17.4812C8.92583 17.5906 9.81724 17.8586 10.6321 18.2086C10.375 18.5422 10.1235 18.9359 9.87192 19.3953H12.7868L10.818 15.9664C9.9102 15.5125 8.94224 15.168 7.80474 15.0476C7.49849 15.0148 7.17583 14.9984 6.84224 14.9984ZM18.9227 14.9984C18.6602 15.0039 18.4086 15.0203 18.1625 15.0476C16.3032 15.2445 14.9032 16.032 13.4813 16.9289V16.9453C13.1477 16.8414 12.8086 16.8195 12.4805 16.8797L13.9188 19.3953H16.2813C15.9532 18.9469 15.636 18.5531 15.3133 18.2141C16.1336 17.8586 17.0305 17.5906 18.0532 17.4812C20.104 17.2625 22.6196 17.7164 25.9391 19.2914V16.9672C23.0352 15.5289 20.8477 15.0039 19.0922 14.9984H18.9227Z" fill="#2E73BC"/>
</svg>
