<svg width="30" height="19" viewBox="0 0 30 19" fill="none" xmlns="http://www.w3.org/2000/svg">
<path d="M29.1721 4.19267L16.0967 0.164623C15.3842 -0.0548745 14.6154 -0.0548745 13.9034 0.164623L0.827581 4.19267C-0.27586 4.53249 -0.27586 5.99566 0.827581 6.33548L3.10712 7.03768C2.60696 7.65764 2.29946 8.41389 2.26899 9.24206C1.81759 9.50151 1.49977 9.96965 1.49977 10.5285C1.49977 11.0352 1.76602 11.4615 2.14946 11.7341L0.952738 17.1337C0.848675 17.6032 1.20493 18.0488 1.68446 18.0488H4.31463C4.79463 18.0488 5.15088 17.6032 5.04682 17.1337L3.85009 11.7341C4.23353 11.4615 4.49978 11.0352 4.49978 10.5285C4.49978 9.98469 4.1965 9.52971 3.76572 9.26557C3.80134 8.5596 4.16134 7.93542 4.73557 7.53966L13.9029 10.364C14.3276 10.4947 15.1423 10.6578 16.0962 10.364L29.1721 6.33595C30.276 5.99566 30.276 4.53296 29.1721 4.19267V4.19267ZM16.5369 11.8018C15.1995 12.2135 14.06 11.986 13.4623 11.8018L6.66448 9.70785L5.99979 15.0407C5.99979 16.7022 10.0292 18.0488 14.9998 18.0488C19.9705 18.0488 23.9999 16.7022 23.9999 15.0407L23.3352 9.70738L16.5369 11.8018V11.8018Z" fill="#2E73BC"/>
</svg>
